# xmcd
#
# Track frame offsets:
#   150
#   24110
#   42742
#   61320
#   86747
#   106610
#   122957
#   139702
#
# Disc length: 2149 seconds
#
# Revision: 4
# Processed by: cddbd v1.5.1PL0 Copyright (c) Steve Scherf et al.
# Submitted via: Media_Universe 3.0
#
DISCID=65086308
DTITLE=Aretha Franklin - Through The Storm
DYEAR=1989
DGENRE=Soul
TTITLE0=Gimme Your Love
TTITLE1=Mercy
TTITLE2=He's The Boy
TTITLE3=It Isn't, It Wasn't, It Ain't Never Gonna Be
TTITLE4=Through The Storm
TTITLE5=Think (1989)
TTITLE6=Come To Me
TTITLE7=If Ever A Love There Was
EXTD=
EXTT0=
EXTT1=
EXTT2=
EXTT3=
EXTT4=
EXTT5=
EXTT6=
EXTT7=
PLAYORDER=
